<svg width="121" height="121" viewBox="0 0 121 121" fill="none" xmlns="http://www.w3.org/2000/svg">
<rect width="121" height="121" rx="20" fill="#DEFFEE"/>
<path d="M55.1735 79.9615H43.4877C42.2235 79.9615 41.1752 78.9132 41.1752 77.649V61.8624C41.1752 58.6557 43.796 56.0345 47.0026 56.0345H55.1735C56.4376 56.0345 57.486 57.0829 57.486 58.347V77.6179C57.486 78.9129 56.4376 79.9615 55.1735 79.9615ZM45.8002 75.3365H52.8609V60.6907H47.0026C46.3551 60.6907 45.8002 61.2145 45.8002 61.8929V75.3365Z" fill="#00DA71"/>
<path d="M66.8263 79.9615H55.1405C53.8763 79.9615 52.828 78.9132 52.828 77.649V47.8638C52.828 44.6571 55.4488 42.0363 58.6555 42.0363H63.3421C66.5488 42.0363 69.1696 44.6571 69.1696 47.8638V77.649C69.1388 78.9132 68.1213 79.9615 66.8263 79.9615ZM57.4838 75.3365H64.5446V47.8638C64.5446 47.2163 64.0205 46.6613 63.3421 46.6613H58.6555C58.008 46.6613 57.453 47.1855 57.453 47.8638V75.3365H57.4838Z" fill="#00DA71"/>
<path d="M78.5152 79.9616H66.8293C65.5652 79.9616 64.5168 78.9133 64.5168 77.6491V63.6196C64.5168 62.3555 65.5652 61.3071 66.8293 61.3071H75.0002C78.2068 61.3071 80.8277 63.928 80.8277 67.1346V77.6491C80.8277 78.9133 79.8102 79.9616 78.5152 79.9616ZM69.1418 75.3366H76.2027V67.1346C76.2027 66.4871 75.6785 65.9321 75.0002 65.9321H69.1418V75.3366Z" fill="#00DA71"/>
<path d="M70.25 94.1458H51.75C35.0075 94.1458 27.8541 86.9925 27.8541 70.25V51.75C27.8541 35.0075 35.0075 27.8541 51.75 27.8541H70.25C86.9925 27.8541 94.1458 35.0075 94.1458 51.75V70.25C94.1458 86.9925 86.9925 94.1458 70.25 94.1458ZM51.75 32.4791C37.5358 32.4791 32.4791 37.5358 32.4791 51.75V70.25C32.4791 84.4641 37.5358 89.5208 51.75 89.5208H70.25C84.4641 89.5208 89.5208 84.4641 89.5208 70.25V51.75C89.5208 37.5358 84.4641 32.4791 70.25 32.4791H51.75Z" fill="#00DA71"/>
</svg>
