<svg width="121" height="121" viewBox="0 0 121 121" fill="none" xmlns="http://www.w3.org/2000/svg">
<rect width="121" height="121" rx="20" fill="#FFF7E3"/>
<path d="M78.6984 94.1459H43.3017C35.6242 94.1459 29.3959 87.9175 29.3959 80.24V59.4892C29.3959 51.8117 35.6242 45.5834 43.3017 45.5834H78.6984C86.3759 45.5834 92.6042 51.8117 92.6042 59.4892V63.9292C92.6042 65.1934 91.5559 66.2417 90.2917 66.2417H84.0634C82.9842 66.2417 81.9975 66.6425 81.2884 67.3825L81.2575 67.4134C80.3942 68.2459 79.9934 69.3867 80.0859 70.5584C80.2709 72.5934 82.2134 74.2275 84.4334 74.2275H90.2917C91.5559 74.2275 92.6042 75.2759 92.6042 76.54V80.2092C92.6042 87.9175 86.3759 94.1459 78.6984 94.1459ZM43.3017 50.2084C38.1834 50.2084 34.0209 54.3709 34.0209 59.4892V80.24C34.0209 85.3584 38.1834 89.5209 43.3017 89.5209H78.6984C83.8167 89.5209 87.9792 85.3584 87.9792 80.24V78.8834H84.4334C79.7775 78.8834 75.8309 75.43 75.4609 70.99C75.2142 68.4617 76.1392 65.9642 77.9892 64.145C79.5925 62.5109 81.7509 61.6167 84.0634 61.6167H87.9792V59.4892C87.9792 54.3709 83.8167 50.2084 78.6984 50.2084H43.3017Z" fill="#FF9900"/>
<path d="M31.7084 64.5766C30.4442 64.5766 29.3959 63.5283 29.3959 62.2641V48.1735C29.3959 43.5793 32.2942 39.4167 36.58 37.7825L61.0617 28.5325C63.59 27.5767 66.3959 27.9159 68.585 29.4576C70.805 30.9993 72.1 33.4968 72.1 36.1793V47.8959C72.1 49.16 71.0517 50.2084 69.7875 50.2084C68.5234 50.2084 67.475 49.16 67.475 47.8959V36.1793C67.475 35.0076 66.92 33.9284 65.9334 33.25C64.9467 32.5717 63.775 32.4175 62.665 32.8492L38.1834 42.0992C35.6859 43.055 33.99 45.491 33.99 48.1735V62.2641C34.0209 63.5591 32.9725 64.5766 31.7084 64.5766Z" fill="#FF9900"/>
<path d="M84.4348 78.884C79.779 78.884 75.8323 75.4306 75.4623 70.9906C75.2157 68.4315 76.1407 65.934 77.9907 64.1148C79.5632 62.5115 81.7215 61.6173 84.034 61.6173H90.4473C93.4998 61.7098 95.8432 64.1148 95.8432 67.0748V73.4265C95.8432 76.3865 93.4998 78.7915 90.5398 78.884H84.4348ZM90.3857 66.2423H84.0648C82.9857 66.2423 81.999 66.6431 81.2898 67.3831C80.3957 68.2465 79.964 69.4181 80.0873 70.5898C80.2723 72.6248 82.2148 74.259 84.4348 74.259H90.4782C90.879 74.259 91.249 73.889 91.249 73.4265V67.0748C91.249 66.6123 90.879 66.2731 90.3857 66.2423Z" fill="#FF9900"/>
<path d="M67.1667 63.3125H45.5834C44.3192 63.3125 43.2709 62.2642 43.2709 61C43.2709 59.7358 44.3192 58.6875 45.5834 58.6875H67.1667C68.4309 58.6875 69.4792 59.7358 69.4792 61C69.4792 62.2642 68.4309 63.3125 67.1667 63.3125Z" fill="#FF9900"/>
</svg>
