<svg width="166" height="27" viewBox="0 0 166 27" fill="none" xmlns="http://www.w3.org/2000/svg">
<path d="M76.6068 10.5983C74.14 10.5983 72.3902 12.5443 72.3902 15.5315V26.489H68.6246V7.20196H72.3451V9.55715C72.804 8.77655 73.4616 8.1339 74.2498 7.69581C75.038 7.25771 75.9281 7.04011 76.8278 7.06556H78.1807V10.5983H76.6068ZM66.0224 16.8455C66.0224 11.0939 61.9637 6.79276 56.4708 6.79276C55.173 6.80165 53.8898 7.06916 52.6949 7.57992C51.5 8.09068 50.417 8.8346 49.5084 9.76888C48.5997 10.7032 47.8833 11.8094 47.4002 13.0238C46.9172 14.2383 46.6771 15.5371 46.6937 16.8455C46.6937 22.5925 51.0907 26.9392 56.8271 26.9392C58.4295 26.9697 60.0156 26.6114 61.4519 25.8945C62.8882 25.1776 64.1325 24.1231 65.0799 22.8199L62.347 20.8011C61.72 21.6834 60.8904 22.3994 59.9291 22.8879C58.9678 23.3765 57.9035 23.623 56.8271 23.6064C55.2941 23.5991 53.8143 23.0384 52.6561 22.0258C51.4978 21.0132 50.7377 19.6158 50.5135 18.0868H66.0315L66.0224 16.8455ZM50.5947 15.0768C51.2666 12.1351 53.5981 10.1437 56.4257 10.1437C59.2533 10.1437 61.5804 12.1351 62.2117 15.0768H50.5947ZM34.7655 6.79276C33.5071 6.79383 32.2613 7.04631 31.1002 7.53562C29.9392 8.02493 28.8858 8.74137 28.0009 9.64354V0H24.2353V26.489H27.9558V24.0429C29.7582 25.8812 32.2107 26.9229 34.7745 26.9392C36.1045 26.9677 37.4267 26.7282 38.6636 26.2347C39.9005 25.7413 41.0273 25.0039 41.9779 24.0657C42.9284 23.1275 43.6836 22.0074 44.1992 20.7711C44.7148 19.5348 44.9804 18.2071 44.9804 16.866C44.9804 15.5248 44.7148 14.1972 44.1992 12.9609C43.6836 11.7246 42.9284 10.6045 41.9779 9.66626C41.0273 8.72805 39.9005 7.99062 38.6636 7.49719C37.4267 7.00376 36.1045 6.76427 34.7745 6.79276H34.7655ZM34.4949 23.5473C33.1824 23.5536 31.8976 23.1667 30.8035 22.4356C29.7094 21.7045 28.8554 20.6623 28.3498 19.4411C27.8442 18.2199 27.7098 16.8748 27.9637 15.5764C28.2176 14.2781 28.8483 13.0851 29.7758 12.1487C30.7032 11.2123 31.8857 10.5748 33.1731 10.3171C34.4606 10.0594 35.7949 10.193 37.0069 10.7011C38.2188 11.2092 39.2538 12.0688 39.9804 13.1708C40.7071 14.2728 41.0926 15.5677 41.0882 16.891C41.0893 17.7638 40.9196 18.6283 40.5885 19.4348C40.2575 20.2413 39.7717 20.974 39.1591 21.5908C38.5466 22.2075 37.8192 22.6963 37.0188 23.0289C36.2184 23.3615 35.3607 23.5315 34.4949 23.5291V23.5473ZM10.3679 23.3655C14.0027 23.3655 16.8258 20.5556 16.8258 16.3454V0H20.7267V26.489H16.8709V23.9838C15.9701 24.9225 14.8897 25.6671 13.6952 26.1728C12.5007 26.6784 11.2169 26.9345 9.92141 26.9255C4.31581 26.9255 0 22.8062 0 16.5591V0H3.97307V16.3681C3.97307 20.6011 6.67891 23.3655 10.3679 23.3655Z" fill="#262626"/>
<path d="M87.5474 0H105.979V4.54669H92.5261V11.003H105.604V15.3951H92.5261V21.9605H105.979V26.5072H87.5474V0ZM156.88 26.9846C162.531 26.9846 165.714 24.2566 165.714 20.5101C165.714 17.8412 163.829 15.8498 159.883 14.9859L155.712 14.1266C153.29 13.6719 152.528 13.2172 152.528 12.3079C152.528 11.1303 153.696 10.4074 155.847 10.4074C158.179 10.4074 159.906 11.0394 160.357 13.2127H165.245C164.979 9.12067 162.062 6.41993 156.145 6.41993C151.031 6.41993 147.441 8.54779 147.441 12.6716C147.441 15.5224 149.416 17.3775 153.678 18.2823L158.341 19.3689C160.181 19.7327 160.673 20.2328 160.673 21.0012C160.673 22.2242 159.284 22.9926 157.038 22.9926C154.215 22.9926 152.6 22.3606 151.973 20.1873H147.058C147.775 24.2703 150.778 26.9846 156.88 26.9846ZM145.637 26.489H140.347C137.028 26.489 135.188 24.4067 135.188 21.7787V11.3667H131.468V6.92916H135.206V1.35946H140.122V6.92916H145.637V11.3667H140.122V20.5101C140.122 21.5513 140.839 22.0515 141.962 22.0515H145.637V26.489ZM124.441 6.93826V8.70237C122.711 7.22736 120.516 6.4215 118.25 6.42903C116.893 6.40025 115.544 6.64483 114.282 7.14841C113.02 7.65199 111.871 8.40445 110.901 9.36168C109.932 10.3189 109.161 11.4617 108.635 12.7229C108.11 13.9842 107.839 15.3386 107.839 16.7068C107.839 18.075 108.11 19.4295 108.635 20.6907C109.161 21.952 109.932 23.0947 110.901 24.052C111.871 25.0092 113.02 25.7617 114.282 26.2653C115.544 26.7688 116.893 27.0134 118.25 26.9846C120.516 26.9946 122.712 26.1884 124.441 24.7113V26.4799H129.344V6.92916L124.441 6.93826ZM118.655 22.6926C117.48 22.7061 116.326 22.3668 115.342 21.7179C114.358 21.069 113.587 20.1398 113.128 19.0483C112.669 17.9568 112.542 16.7523 112.764 15.5879C112.985 14.4235 113.545 13.3518 114.372 12.509C115.199 11.6662 116.256 11.0903 117.409 10.8545C118.561 10.6188 119.757 10.7338 120.844 11.1849C121.932 11.6361 122.862 12.403 123.516 13.3883C124.17 14.3735 124.519 15.5326 124.518 16.7182C124.525 17.4997 124.379 18.275 124.087 18.999C123.795 19.723 123.363 20.3815 122.817 20.9362C122.271 21.491 121.621 21.9311 120.905 22.231C120.189 22.5309 119.422 22.6847 118.646 22.6835L118.655 22.6926Z" fill="#5FB709"/>
</svg>
