<svg width="167" height="53" viewBox="0 0 167 53" fill="none" xmlns="http://www.w3.org/2000/svg">
<path d="M87.7057 13.1006C87.7057 14.9796 86.1981 16.4932 84.3266 16.4932C82.455 16.4932 80.9474 14.9796 80.9474 13.1006C80.9474 11.2216 82.4031 9.70803 84.3266 9.70803C86.2501 9.76022 87.7057 11.2738 87.7057 13.1006ZM73.7733 19.938C73.7733 20.2512 73.7733 20.7731 73.7733 20.7731C73.7733 20.7731 72.1617 18.6853 68.7306 18.6853C63.064 18.6853 58.6452 23.0174 58.6452 29.0197C58.6452 34.9698 63.0121 39.354 68.7306 39.354C72.2137 39.354 73.7733 37.2141 73.7733 37.2141V38.1014C73.7733 38.5189 74.0852 38.8321 74.5011 38.8321H78.712V19.2073C78.712 19.2073 74.865 19.2073 74.5011 19.2073C74.0852 19.2073 73.7733 19.5726 73.7733 19.938ZM73.7733 32.5167C72.9935 33.6649 71.4339 34.6566 69.5624 34.6566C66.2352 34.6566 63.6879 32.5689 63.6879 29.0197C63.6879 25.4705 66.2352 23.3828 69.5624 23.3828C71.3819 23.3828 73.0455 24.4266 73.7733 25.5227V32.5167ZM81.8312 19.2073H86.8219V38.8321H81.8312V19.2073ZM156.38 18.6853C152.949 18.6853 151.337 20.7731 151.337 20.7731V9.76022H146.347V38.8321C146.347 38.8321 150.194 38.8321 150.557 38.8321C150.973 38.8321 151.285 38.4667 151.285 38.1014V37.2141C151.285 37.2141 152.897 39.354 156.328 39.354C161.995 39.354 166.413 34.9698 166.413 29.0197C166.413 23.0696 161.994 18.6853 156.38 18.6853ZM155.548 34.6044C153.625 34.6044 152.117 33.6127 151.337 32.4645V25.4705C152.117 24.4266 153.781 23.3306 155.548 23.3306C158.875 23.3306 161.423 25.4183 161.423 28.9675C161.423 32.5167 158.875 34.6044 155.548 34.6044ZM143.747 27.1929V38.8843H138.756V27.767C138.756 24.531 137.717 23.2262 134.909 23.2262C133.402 23.2262 131.842 24.0091 130.855 25.1574V38.8321H125.864V19.2073H129.815C130.231 19.2073 130.543 19.5726 130.543 19.938V20.7731C131.998 19.2595 133.922 18.6853 135.845 18.6853C138.029 18.6853 139.848 19.3117 141.304 20.5643C143.071 22.0257 143.747 23.9047 143.747 27.1929ZM113.751 18.6853C110.32 18.6853 108.708 20.7731 108.708 20.7731V9.76022H103.718V38.8321C103.718 38.8321 107.565 38.8321 107.928 38.8321C108.344 38.8321 108.656 38.4667 108.656 38.1014V37.2141C108.656 37.2141 110.268 39.354 113.699 39.354C119.366 39.354 123.784 34.9698 123.784 29.0197C123.836 23.0696 119.417 18.6853 113.751 18.6853ZM112.919 34.6044C110.996 34.6044 109.488 33.6127 108.708 32.4645V25.4705C109.488 24.4266 111.152 23.3306 112.919 23.3306C116.246 23.3306 118.794 25.4183 118.794 28.9675C118.794 32.5167 116.246 34.6044 112.919 34.6044ZM99.4027 18.6853C100.91 18.6853 101.69 18.9463 101.69 18.9463V23.5915C101.69 23.5915 97.5311 22.1823 94.9318 25.1574V38.8843H89.9411V19.2073C89.9411 19.2073 93.7881 19.2073 94.152 19.2073C94.5679 19.2073 94.8798 19.5726 94.8798 19.938V20.7731C95.8156 19.677 97.8431 18.6853 99.4027 18.6853ZM47.572 37.0575C47.3121 36.4312 47.0522 35.7527 46.7922 35.1785C46.3764 34.2391 45.9605 33.3518 45.5966 32.5167L45.5446 32.4645C41.9575 24.6354 38.1105 16.702 34.0555 8.87293L33.8996 8.55976C33.4837 7.77686 33.0678 6.94176 32.6519 6.10666C32.132 5.16718 31.6122 4.1755 30.7804 3.23601C29.1168 1.14826 26.7254 0 24.1781 0C21.5788 0 19.2394 1.14826 17.5238 3.13162C16.744 4.07111 16.1722 5.06279 15.6523 6.00227C15.2364 6.83737 14.8205 7.67247 14.4046 8.45538L14.2487 8.76854C10.2457 16.5976 6.34669 24.531 2.75962 32.3601L2.70763 32.4645C2.34373 33.2996 1.92784 34.1869 1.51194 35.1264C1.25201 35.7005 0.992077 36.3268 0.732144 37.0053C0.0563188 38.9365 -0.151628 40.7633 0.108305 42.6422C0.680158 46.5568 3.27949 49.845 6.86656 51.3064C8.21821 51.8805 9.62185 52.1415 11.0775 52.1415C11.4934 52.1415 12.0132 52.0893 12.4291 52.0371C14.1447 51.8283 15.9122 51.2542 17.6278 50.2625C19.7592 49.0621 21.7867 47.3397 24.0741 44.8344C26.3615 47.3397 28.441 49.0621 30.5205 50.2625C32.236 51.2542 34.0035 51.8283 35.7191 52.0371C36.135 52.0893 36.6549 52.1415 37.0708 52.1415C38.5264 52.1415 39.982 51.8805 41.2817 51.3064C44.9207 49.845 47.4681 46.5046 48.0399 42.6422C48.4558 40.8155 48.2479 38.9887 47.572 37.0575ZM24.1261 39.7716C21.3188 36.2224 19.4993 32.882 18.8755 30.0636C18.6155 28.8631 18.5635 27.8192 18.7195 26.8798C18.8235 26.0447 19.1354 25.3139 19.5513 24.6876C20.539 23.2784 22.2026 22.3911 24.1261 22.3911C26.0496 22.3911 27.7652 23.2262 28.7009 24.6876C29.1168 25.3139 29.4287 26.0447 29.5327 26.8798C29.6887 27.8192 29.6367 28.9153 29.3767 30.0636C28.7529 32.8298 26.9334 36.1702 24.1261 39.7716ZM44.8687 42.2247C44.5048 44.9388 42.6853 47.2875 40.138 48.3314C38.8903 48.8533 37.5386 49.0099 36.187 48.8533C34.8873 48.6967 33.5877 48.2792 32.236 47.4963C30.3645 46.4524 28.493 44.8344 26.3095 42.4335C29.7407 38.2058 31.8201 34.3434 32.5999 30.8987C32.9638 29.2807 33.0158 27.8192 32.8598 26.4622C32.6519 25.1574 32.184 23.9569 31.4562 22.913C29.8446 20.5643 27.1413 19.2073 24.1261 19.2073C21.1109 19.2073 18.4076 20.6165 16.796 22.913C16.0682 23.9569 15.6003 25.1574 15.3924 26.4622C15.1844 27.8192 15.2364 29.3329 15.6523 30.8987C16.4321 34.3434 18.5635 38.258 21.9427 42.4857C19.8112 44.8866 17.8877 46.5046 16.0162 47.5485C14.6645 48.3314 13.3649 48.7489 12.0652 48.9055C10.6616 49.0621 9.30993 48.8533 8.11424 48.3835C5.5669 47.3397 3.74737 44.991 3.38346 42.2769C3.2275 40.972 3.33147 39.6672 3.85134 38.2058C4.0073 37.6838 4.26723 37.1619 4.52716 36.5356C4.89107 35.7005 5.30696 34.8132 5.72286 33.9259L5.77484 33.8215C9.36192 26.0447 13.2089 18.1112 17.2119 10.3865L17.3679 10.0734C17.7837 9.29048 18.1996 8.45538 18.6155 7.67247C19.0314 6.83737 19.4993 6.05447 20.0712 5.37595C21.1629 4.1233 22.6185 3.44478 24.2301 3.44478C25.8417 3.44478 27.2973 4.1233 28.389 5.37595C28.9609 6.05447 29.4287 6.83737 29.8446 7.67247C30.2605 8.45538 30.6764 9.29048 31.0923 10.0734L31.2483 10.3865C35.1992 18.1634 39.0462 26.0968 42.6333 33.8737V33.9259C43.0492 34.761 43.4131 35.7005 43.829 36.5356C44.0889 37.1619 44.3489 37.6838 44.5048 38.2058C44.9207 39.5628 45.0767 40.8677 44.8687 42.2247Z" fill="#FF5A5F"/>
</svg>
